<?xml version="1.0" encoding="UTF-8" standalone="no"?>
<svg
   inkscape:version="1.1.1 (3bf5ae0d25, 2021-09-20)"
   sodipodi:docname="tactics_panel.svg"
   id="svg125"
   viewBox="0 0 23.999999 23.999999"
   height="24pt"
   width="24pt"
   overflow="visible"
   version="1.1"
   fill-rule="evenodd"
   stroke-linejoin="bevel"
   stroke-width="0.501"
   inkscape:export-filename="C:\Users\fcgle\source\tactics_pi\data\tactics_panel.png"
   inkscape:export-xdpi="96"
   inkscape:export-ydpi="96"
   xmlns:inkscape="http://www.inkscape.org/namespaces/inkscape"
   xmlns:sodipodi="http://sodipodi.sourceforge.net/DTD/sodipodi-0.dtd"
   xmlns="http://www.w3.org/2000/svg"
   xmlns:svg="http://www.w3.org/2000/svg"
   xmlns:rdf="http://www.w3.org/1999/02/22-rdf-syntax-ns#"
   xmlns:cc="http://creativecommons.org/ns#"
   xmlns:dc="http://purl.org/dc/elements/1.1/">
  <metadata
     id="metadata129">
    <rdf:RDF>
      <cc:Work
         rdf:about="">
        <dc:format>image/svg+xml</dc:format>
        <dc:type
           rdf:resource="http://purl.org/dc/dcmitype/StillImage" />
      </cc:Work>
    </rdf:RDF>
  </metadata>
  <sodipodi:namedview
     inkscape:current-layer="svg125"
     inkscape:window-maximized="0"
     inkscape:window-y="86"
     inkscape:window-x="334"
     inkscape:cy="21.885715"
     inkscape:cx="1.4285714"
     inkscape:zoom="8.7499999"
     showgrid="false"
     id="namedview127"
     inkscape:window-height="925"
     inkscape:window-width="1520"
     inkscape:pageshadow="2"
     inkscape:pageopacity="0"
     guidetolerance="10"
     gridtolerance="10"
     objecttolerance="10"
     borderopacity="1"
     bordercolor="#666666"
     pagecolor="#ffffff"
     inkscape:pagecheckerboard="0"
     inkscape:document-units="pt" />
  <defs
     id="defs79">
    <marker
       orient="auto"
       overflow="visible"
       markerHeight="1"
       markerWidth="1"
       viewBox="0 0 1 1"
       markerUnits="strokeWidth"
       id="DefaultArrow2">
      <!-- REF_ARROW_STRAIGHT (-2) -->
      <g
         id="g4"
         transform="scale(0.00925926)">
        <!-- 1/108 -->
        <path
           id="path2"
           d="M -9,54 V -54 L 117,0 Z" />
      </g>
    </marker>
    <marker
       orient="auto"
       overflow="visible"
       markerHeight="1"
       markerWidth="1"
       viewBox="0 0 1 1"
       markerUnits="strokeWidth"
       id="DefaultArrow3">
      <!-- REF_ARROW_ANGLED -->
      <g
         id="g9"
         transform="scale(0.00925926)">
        <path
           id="path7"
           d="M -27,54 -9,0 -27,-54 135,0 Z" />
      </g>
    </marker>
    <marker
       orient="auto"
       overflow="visible"
       markerHeight="1"
       markerWidth="1"
       viewBox="0 0 1 1"
       markerUnits="strokeWidth"
       id="DefaultArrow4">
      <!-- REF_ARROW_ROUNDED -->
      <g
         id="g14"
         transform="scale(0.00925926)">
        <path
           id="path12"
           d="m -9,0 v -45 c 0,-6.708 11.808,-11.58 18,-9 l 108,45 c 3.916,1.631 9,4.758 9,9 0,4.242 -5.084,7.369 -9,9 L 9,54 C 2.808,56.58 -9,51.708 -9,45 Z" />
      </g>
    </marker>
    <marker
       orient="auto"
       overflow="visible"
       markerHeight="1"
       markerWidth="1"
       viewBox="0 0 1 1"
       markerUnits="strokeWidth"
       id="DefaultArrow5">
      <!-- REF_ARROW_SPOT -->
      <g
         id="g19"
         transform="scale(0.00925926)">
        <path
           id="path17"
           d="M -54,0 C -54,29.807 -29.807,54 0,54 29.807,54 54,29.807 54,0 54,-29.807 29.807,-54 0,-54 -29.807,-54 -54,-29.807 -54,0 Z" />
      </g>
    </marker>
    <marker
       orient="auto"
       overflow="visible"
       markerHeight="1"
       markerWidth="1"
       viewBox="0 0 1 1"
       markerUnits="strokeWidth"
       id="DefaultArrow6">
      <!-- REF_ARROW_DIAMOND -->
      <g
         id="g24"
         transform="scale(0.00925926)">
        <path
           id="path22"
           d="M -63,0 0,63 63,0 0,-63 Z" />
      </g>
    </marker>
    <marker
       orient="auto"
       overflow="visible"
       markerHeight="1"
       markerWidth="1"
       viewBox="0 0 1 1"
       markerUnits="strokeWidth"
       id="DefaultArrow7">
      <!-- REF_ARROW_FEATHER -->
      <g
         id="g29"
         transform="scale(0.00925926)">
        <path
           id="path27"
           d="m 18,-54 h 90 L 63,0 108,54 H 18 L -36,0 Z" />
      </g>
    </marker>
    <marker
       orient="auto"
       overflow="visible"
       markerHeight="1"
       markerWidth="1"
       viewBox="0 0 1 1"
       markerUnits="strokeWidth"
       id="DefaultArrow8">
      <!-- REF_ARROW_FEATHER2 -->
      <g
         id="g34"
         transform="scale(0.00925926)">
        <path
           id="path32"
           d="m -36,0 54,-54 h 36 l -36,36 h 9 l 36,-36 h 36 l -36,36 h 9 l 36,-36 h 36 L 90,0 144,54 H 108 L 72,18 H 63 L 99,54 H 63 L 27,18 H 18 L 54,54 H 18 Z" />
      </g>
    </marker>
    <marker
       orient="auto"
       overflow="visible"
       markerHeight="1"
       markerWidth="1"
       viewBox="0 0 1 1"
       markerUnits="strokeWidth"
       id="DefaultArrow9">
      <!-- REF_ARROW_HOLLOWDIAMOND -->
      <g
         id="g39"
         transform="scale(0.00925926)">
        <path
           id="path37"
           d="M 0,45 -45,0 0,-45 45,0 Z M 0,63 -63,0 0,-63 63,0 Z" />
      </g>
    </marker>
    <filter
       id="StainedFilter">
      <feBlend
         id="feBlend42"
         result="blend"
         in="SourceGraphic"
         in2="BackgroundImage"
         mode="multiply" />
      <feComposite
         id="feComposite44"
         result="comp"
         operator="in"
         in2="SourceAlpha"
         in="blend" />
    </filter>
    <filter
       id="BleachFilter">
      <feBlend
         id="feBlend47"
         result="blend"
         in="SourceGraphic"
         in2="BackgroundImage"
         mode="screen" />
      <feComposite
         id="feComposite49"
         result="comp"
         operator="in"
         in2="SourceAlpha"
         in="blend" />
    </filter>
    <filter
       id="InvertTransparencyBitmapFilter">
      <feComponentTransfer
         id="feComponentTransfer58">
        <feFuncR
           id="feFuncR52"
           offset="-0.055"
           exponent=".416666666"
           amplitude="1.055"
           type="gamma" />
        <feFuncG
           id="feFuncG54"
           offset="-0.055"
           exponent=".416666666"
           amplitude="1.055"
           type="gamma" />
        <feFuncB
           id="feFuncB56"
           offset="-0.055"
           exponent=".416666666"
           amplitude="1.055"
           type="gamma" />
      </feComponentTransfer>
      <feComponentTransfer
         id="feComponentTransfer68">
        <feFuncR
           id="feFuncR60"
           intercept="1"
           slope="-1"
           type="linear" />
        <feFuncG
           id="feFuncG62"
           intercept="1"
           slope="-1"
           type="linear" />
        <feFuncB
           id="feFuncB64"
           intercept="1"
           slope="-1"
           type="linear" />
        <feFuncA
           id="feFuncA66"
           intercept="0"
           slope="1"
           type="linear" />
      </feComponentTransfer>
      <feComponentTransfer
         id="feComponentTransfer76">
        <feFuncR
           id="feFuncR70"
           offset="0"
           exponent="2.4"
           amplitude="1"
           type="gamma" />
        <feFuncG
           id="feFuncG72"
           offset="0"
           exponent="2.4"
           amplitude="1"
           type="gamma" />
        <feFuncB
           id="feFuncB74"
           offset="0"
           exponent="2.4"
           amplitude="1"
           type="gamma" />
      </feComponentTransfer>
    </filter>
  </defs>
  <g
     transform="matrix(-1.3332593,0,0,1.3332593,24.000001,23.998667)"
     font-size="16px"
     font-family="'Times New Roman'"
     stroke="#000000"
     fill="none"
     id="Document"
     style="display:inline"
     inkscape:export-filename="C:\Users\fcgle\source\tactics_pi\data\tactics_panel.png"
     inkscape:export-xdpi="96"
     inkscape:export-ydpi="96">
    <g
       transform="translate(0,-18)"
       id="Spread"
       style="display:inline">
      <g
         id="Layer 1"
         style="display:inline">
        <g
           id="Group"
           style="display:inline">
          <path
             id="path85"
             stroke-miterlimit="79.8403"
             marker-end="none"
             marker-start="none"
             stroke-linejoin="miter"
             stroke-width="0.75"
             stroke="none"
             fill="#282828"
             d="M 18.001,0 V 18.001 H 0 V 0 Z"
             style="display:inline;opacity:0"
             inkscape:label="Border Transparent" />
          <g
             id="Group_1"
             style="display:inline">
            <path
               id="path104"
               stroke-miterlimit="79.8403"
               marker-end="none"
               marker-start="none"
               stroke-linejoin="miter"
               stroke-width="0.75"
               stroke="#b4b4b4"
               d="m 3.485,12.373 1.621,2.96 8.342,-4.567 0.481,0.878 2.794,-4.596 -5.377,-0.122 0.481,0.88 z"
               style="display:inline;stroke:#999999;stroke-opacity:1;opacity:0.70000001;stroke-width:0.75004164;stroke-miterlimit:79.84030151;stroke-dasharray:none"
               inkscape:label="Current Arrow" />
            <g
               stroke-miterlimit="79.8403"
               fill="#b4b4b4"
               stroke-width="0.75"
               stroke="none"
               stroke-linejoin="miter"
               id="Group_3"
               style="display:inline;fill:#404040;fill-opacity:1"
               inkscape:label="Tack angles">
              <path
                 id="path106"
                 marker-end="none"
                 marker-start="none"
                 d="M 9.114,7.088 17.289,0.413 H 14.364 Z"
                 style="fill:#cccccc;fill-opacity:1"
                 inkscape:label="port" />
              <path
                 id="path108"
                 marker-end="none"
                 marker-start="none"
                 d="M 8.888,7.088 0.713,0.413 h 2.925 z"
                 style="fill:#cccccc;fill-opacity:1"
                 inkscape:label="starboard" />
            </g>
            <path
               id="path111"
               stroke-miterlimit="79.8403"
               marker-end="none"
               marker-start="none"
               stroke-linejoin="miter"
               stroke-width="0.496"
               stroke="none"
               fill="#282828"
               d="M 9.162,10.428 C 8.708,10.34 8.267,10.636 8.178,11.09 8.09,11.544 8.386,11.985 8.84,12.074 9.294,12.162 9.735,11.866 9.824,11.412 9.912,10.958 9.616,10.517 9.162,10.428 Z"
               inkscape:label="Point"
               style="fill:#000000;fill-opacity:1" />
            <g
               stroke-miterlimit="79.8403"
               fill="#000000"
               stroke-width="0.75"
               stroke="#b4b4b4"
               stroke-linecap="round"
               stroke-linejoin="round"
               id="Group_4"
               style="display:inline;fill:#666666;stroke:#666666;stroke-opacity:1"
               inkscape:label="Wind Arrow">
              <path
                 id="path113"
                 fill="none"
                 d="M 1.368,8.605 7.82,10.702"
                 style="fill:#666666;stroke:#4f4f4f;stroke-opacity:1" />
              <path
                 id="path115"
                 fill="none"
                 d="M 1.329,8.626 2.272,5.724"
                 style="fill:#666666;stroke:#4f4f4f;stroke-opacity:1" />
              <path
                 id="path117"
                 fill="none"
                 d="M 3.021,9.045 3.579,7.329"
                 style="fill:#666666;stroke:#4f4f4f;stroke-opacity:1" />
            </g>
            <g
               id="Group_2"
               style="display:inline"
               inkscape:label="Boat Hull">
              <path
                 id="path87"
                 stroke-miterlimit="79.8403"
                 marker-end="none"
                 marker-start="none"
                 fill="#b4b4b4"
                 stroke="none"
                 stroke-opacity="0"
                 stroke-width="0"
                 stroke-linejoin="miter"
                 d="m 7.389,17.432 1.526,0.013 1.452,0.006 c 0,0 0.343,0.092 0.449,-0.231 C 12.356,9.757 10.422,6.596 9.47,5.545 9.252,5.302 9.089,5.171 9.028,5.127 H 9.012 C 8.664,5.37 5.267,7.993 6.953,17.185 c 0.099,0.323 0.436,0.247 0.436,0.247 z m 0.593,-6.26 0.009,-0.04 c 0.098,-0.501 0.593,-0.841 1.127,-0.77 0.275,0.037 0.507,0.185 0.662,0.38 0.155,0.194 0.226,0.44 0.188,0.7 C 9.89,11.96 9.384,12.325 8.832,12.251 8.281,12.177 7.904,11.69 7.982,11.172 Z"
                 style="display:inline;opacity:1;fill:#333333;fill-opacity:0.571429"
                 inkscape:label="Hull2" />
              <path
                 id="path89"
                 fill-opacity="0"
                 stroke-miterlimit="79.8403"
                 marker-end="none"
                 marker-start="none"
                 fill="#b4b4b4"
                 stroke-opacity="0"
                 stroke-width="0"
                 stroke-linejoin="miter"
                 stroke="none"
                 d="m 7.168,17.609 c 0.086,0.019 0.162,0.017 0.21,0.011 l 0.025,-0.003 1.51,0.012 1.434,0.006 0.023,0.005 c 0.049,0.007 0.127,0.012 0.214,-0.003 0.151,-0.027 0.328,-0.122 0.411,-0.375 C 12.545,9.751 10.606,6.524 9.606,5.422 9.38,5.171 9.208,5.031 9.135,4.979 L 9.087,4.943 H 8.953 L 8.908,4.977 c -0.202,0.139 -1.165,0.885 -1.862,2.76 -0.695,1.872 -1.122,4.861 -0.268,9.5 0.072,0.239 0.241,0.339 0.39,0.372 z M 7.138,17.161 7.13,17.139 7.059,16.728 C 6.322,12.401 6.743,9.606 7.391,7.863 7.954,6.349 8.691,5.623 8.996,5.371 l 0.02,-0.017 c 0.077,0.066 0.185,0.168 0.32,0.315 0.888,0.984 2.77,4.002 1.369,11.17 l -0.066,0.331 -0.01,0.022 c -0.027,0.061 -0.07,0.078 -0.11,0.083 -0.043,0.009 -0.086,0.003 -0.102,-10e-4 L 10.392,17.268 8.916,17.263 7.369,17.248 7.347,17.253 C 7.33,17.256 7.289,17.26 7.247,17.251 7.21,17.242 7.167,17.225 7.138,17.161 Z m 1.67,-4.728 c 0.643,0.085 1.249,-0.338 1.341,-0.964 C 10.197,11.158 10.109,10.86 9.923,10.627 9.742,10.401 9.47,10.225 9.142,10.181 8.52,10.098 7.93,10.495 7.81,11.095 l -0.009,0.049 c -0.095,0.627 0.361,1.203 1.007,1.289 z M 8.156,11.276 8.163,11.204 8.17,11.167 c 0.079,-0.397 0.477,-0.681 0.923,-0.622 0.225,0.03 0.414,0.151 0.543,0.312 0.125,0.155 0.181,0.352 0.151,0.557 C 9.725,11.826 9.316,12.13 8.857,12.069 8.429,12.012 8.14,11.658 8.156,11.276 Z"
                 style="display:none;fill:#4d4d4d;fill-opacity:0.571429"
                 inkscape:label="off" />
              <path
                 id="path91"
                 stroke-miterlimit="79.8403"
                 marker-end="none"
                 marker-start="none"
                 fill="#b4b4b4"
                 stroke="none"
                 stroke-opacity="0"
                 stroke-width="0"
                 stroke-linejoin="miter"
                 d="m 8.924,17.366 1.432,0.04 c 0,0 0.377,0.09 0.497,-0.228 C 12.946,8.114 9.447,5.438 9.065,5.19 Z"
                 style="display:none;fill:#4d4d4d;fill-opacity:0.571429"
                 inkscape:label="off" />
              <path
                 id="path93"
                 fill-opacity="0"
                 stroke-miterlimit="79.8403"
                 marker-end="none"
                 marker-start="none"
                 fill="#b4b4b4"
                 stroke-opacity="0"
                 stroke-width="0"
                 stroke-linejoin="miter"
                 stroke="none"
                 d="m 8.739,17.543 1.598,0.046 c 0.047,0.009 0.143,0.021 0.251,0.003 0.154,-0.023 0.348,-0.111 0.439,-0.355 L 11.03,17.22 C 12.084,12.662 11.735,9.69 11.058,7.817 10.384,5.941 9.385,5.18 9.164,5.036 L 8.884,4.855 Z m 0.37,-0.355 0.135,-11.62 0.018,0.017 c 0.37,0.344 0.987,1.068 1.452,2.356 0.626,1.737 0.978,4.51 0.052,8.779 l -0.089,0.403 -0.009,0.019 c -0.032,0.058 -0.081,0.081 -0.136,0.088 -0.074,0.011 -0.142,-0.004 -0.133,-0.003 l -0.018,-0.004 z"
                 style="display:none;fill:#4d4d4d;fill-opacity:0.571429"
                 inkscape:label="off" />
              <path
                 id="path95"
                 stroke-miterlimit="79.8403"
                 marker-end="none"
                 marker-start="none"
                 fill="#b4b4b4"
                 stroke="none"
                 stroke-opacity="0"
                 stroke-width="0"
                 stroke-linejoin="miter"
                 fill-rule="evenodd"
                 d="m 7.411,17.429 1.521,0.02 1.456,0.003 c 0,0 0.34,0.092 0.446,-0.229 C 12.73,8.039 9.369,5.363 9.044,5.128 H 9.031 C 8.683,5.371 5.285,7.999 6.971,17.19 c 0.1,0.324 0.44,0.239 0.44,0.239 z"
                 style="display:none;fill:#4d4d4d;fill-opacity:0.571429"
                 inkscape:label="Hull1" />
              <path
                 id="path97"
                 fill-opacity="0"
                 stroke-miterlimit="79.8403"
                 marker-end="none"
                 marker-start="none"
                 fill="#b4b4b4"
                 stroke-opacity="0"
                 stroke-width="0"
                 stroke-linejoin="miter"
                 fill-rule="evenodd"
                 stroke="none"
                 d="m 7.203,17.567 c 0.094,0.018 0.179,0.009 0.219,0.002 l 1.51,0.019 1.442,0.004 c 0.04,0.008 0.125,0.021 0.221,0.003 0.138,-0.023 0.299,-0.111 0.374,-0.34 C 11.921,12.642 11.558,9.649 10.903,7.774 10.249,5.898 9.307,5.147 9.126,5.016 L 9.089,4.99 8.989,4.988 8.952,5.014 C 8.757,5.15 7.802,5.889 7.11,7.755 6.417,9.62 5.989,12.602 6.838,17.23 c 0.069,0.219 0.225,0.31 0.365,0.337 z M 7.118,17.186 7.105,17.155 7.033,16.742 C 5.632,8.508 8.414,5.793 9.019,5.311 L 9.035,5.297 9.05,5.308 c 0.277,0.229 1.036,0.97 1.591,2.558 0.615,1.76 0.978,4.573 0.142,8.905 l -0.083,0.415 -0.012,0.029 c -0.036,0.075 -0.092,0.1 -0.141,0.108 -0.067,0.011 -0.129,-0.005 -0.122,-0.004 L 10.407,17.315 8.932,17.311 7.396,17.29 7.378,17.294 c 0.007,-0.001 -0.055,0.014 -0.123,0 C 7.206,17.285 7.152,17.262 7.118,17.186 Z"
                 style="display:none;fill:#4d4d4d;fill-opacity:0.571429"
                 inkscape:label="off" />
              <path
                 id="path99"
                 stroke-miterlimit="79.8403"
                 marker-end="none"
                 marker-start="none"
                 fill="#b4b4b4"
                 stroke="none"
                 stroke-opacity="0"
                 stroke-width="0"
                 stroke-linecap="round"
                 stroke-linejoin="round"
                 fill-rule="evenodd"
                 d="m 8.824,12.244 c 0.546,0.08 1.056,-0.271 1.145,-0.783 0.09,-0.513 -0.277,-0.999 -0.82,-1.089 -0.543,-0.089 -1.063,0.25 -1.164,0.761 l -0.007,0.041 c -0.077,0.515 0.3,0.992 0.846,1.07 z"
                 style="display:none;fill:#4d4d4d;fill-opacity:0.571429"
                 inkscape:label="off" />
              <path
                 id="path101"
                 fill-opacity="0"
                 stroke-miterlimit="79.8403"
                 marker-end="none"
                 marker-start="none"
                 fill="#b4b4b4"
                 stroke-opacity="0"
                 stroke-width="0"
                 stroke-linecap="round"
                 stroke-linejoin="round"
                 fill-rule="evenodd"
                 stroke="none"
                 d="M 8.806,12.358 C 9.41,12.446 9.982,12.06 10.083,11.48 10.185,10.899 9.769,10.358 9.167,10.259 8.569,10.161 7.986,10.532 7.872,11.111 l -0.004,0.023 -0.004,0.024 c -0.088,0.584 0.34,1.114 0.942,1.2 z M 8.092,11.187 8.097,11.156 c 0.089,-0.445 0.545,-0.75 1.033,-0.669 0.487,0.08 0.802,0.51 0.726,0.953 C 9.78,11.888 9.33,12.202 8.841,12.13 8.352,12.06 8.026,11.637 8.092,11.187 Z"
                 style="display:none"
                 inkscape:label="off" />
            </g>
          </g>
        </g>
      </g>
    </g>
  </g>
</svg>
