<?xml version="1.0" encoding="UTF-8" standalone="no"?>
<svg
   xmlns:dc="http://purl.org/dc/elements/1.1/"
   xmlns:cc="http://creativecommons.org/ns#"
   xmlns:rdf="http://www.w3.org/1999/02/22-rdf-syntax-ns#"
   xmlns:svg="http://www.w3.org/2000/svg"
   xmlns="http://www.w3.org/2000/svg"
   xmlns:sodipodi="http://sodipodi.sourceforge.net/DTD/sodipodi-0.dtd"
   xmlns:inkscape="http://www.inkscape.org/namespaces/inkscape"
   inkscape:version="1.0 (4035a4fb49, 2020-05-01)"
   sodipodi:docname="Tactics_toggled.svg"
   id="svg121"
   viewBox="0 0 18 18"
   height="18pt"
   width="18pt"
   overflow="visible"
   version="1.1"
   fill-rule="evenodd"
   stroke-linejoin="bevel"
   stroke-width="0.501">
  <metadata
     id="metadata125">
    <rdf:RDF>
      <cc:Work
         rdf:about="">
        <dc:format>image/svg+xml</dc:format>
        <dc:type
           rdf:resource="http://purl.org/dc/dcmitype/StillImage" />
        <dc:title></dc:title>
      </cc:Work>
    </rdf:RDF>
  </metadata>
  <sodipodi:namedview
     inkscape:current-layer="svg121"
     inkscape:window-maximized="1"
     inkscape:window-y="-9"
     inkscape:window-x="-9"
     inkscape:cy="12"
     inkscape:cx="12"
     inkscape:zoom="24.748737"
     showgrid="false"
     id="namedview123"
     inkscape:window-height="1011"
     inkscape:window-width="1920"
     inkscape:pageshadow="2"
     inkscape:pageopacity="0"
     guidetolerance="10"
     gridtolerance="10"
     objecttolerance="10"
     borderopacity="1"
     bordercolor="#666666"
     pagecolor="#ffffff" />
  <defs
     id="defs79">
    <marker
       orient="auto"
       overflow="visible"
       markerHeight="1"
       markerWidth="1"
       viewBox="0 0 1 1"
       markerUnits="strokeWidth"
       id="DefaultArrow2">
      <!-- REF_ARROW_STRAIGHT (-2) -->
      <g
         id="g4"
         transform="scale(0.0092592592)">
        <!-- 1/108 -->
        <path
           id="path2"
           d="M -9 54 L -9 -54 L 117 0 z" />
      </g>
    </marker>
    <marker
       orient="auto"
       overflow="visible"
       markerHeight="1"
       markerWidth="1"
       viewBox="0 0 1 1"
       markerUnits="strokeWidth"
       id="DefaultArrow3">
      <!-- REF_ARROW_ANGLED -->
      <g
         id="g9"
         transform="scale(0.0092592592)">
        <path
           id="path7"
           d="M -27 54 L -9 0 L -27 -54 L 135 0 z" />
      </g>
    </marker>
    <marker
       orient="auto"
       overflow="visible"
       markerHeight="1"
       markerWidth="1"
       viewBox="0 0 1 1"
       markerUnits="strokeWidth"
       id="DefaultArrow4">
      <!-- REF_ARROW_ROUNDED -->
      <g
         id="g14"
         transform="scale(0.0092592592)">
        <path
           id="path12"
           d="M -9,0 L -9,-45 C -9,-51.708 2.808,-56.580 9,-54 L 117,-9 C 120.916,-7.369 126.000,-4.242 126,0 C 126,4.242 120.916,7.369 117,9 L 9,54 C 2.808,56.580 -9,51.708 -9,45 z" />
      </g>
    </marker>
    <marker
       orient="auto"
       overflow="visible"
       markerHeight="1"
       markerWidth="1"
       viewBox="0 0 1 1"
       markerUnits="strokeWidth"
       id="DefaultArrow5">
      <!-- REF_ARROW_SPOT -->
      <g
         id="g19"
         transform="scale(0.0092592592)">
        <path
           id="path17"
           d="M -54, 0 C -54,29.807 -29.807,54 0,54 C 29.807,54 54,29.807 54,0 C 54,-29.807 29.807,-54 0,-54 C -29.807,-54 -54,-29.807 -54,0 z" />
      </g>
    </marker>
    <marker
       orient="auto"
       overflow="visible"
       markerHeight="1"
       markerWidth="1"
       viewBox="0 0 1 1"
       markerUnits="strokeWidth"
       id="DefaultArrow6">
      <!-- REF_ARROW_DIAMOND -->
      <g
         id="g24"
         transform="scale(0.0092592592)">
        <path
           id="path22"
           d="M -63,0 L 0,63 L 63,0 L 0,-63 z" />
      </g>
    </marker>
    <marker
       orient="auto"
       overflow="visible"
       markerHeight="1"
       markerWidth="1"
       viewBox="0 0 1 1"
       markerUnits="strokeWidth"
       id="DefaultArrow7">
      <!-- REF_ARROW_FEATHER -->
      <g
         id="g29"
         transform="scale(0.0092592592)">
        <path
           id="path27"
           d="M 18,-54 L 108,-54 L 63,0 L 108,54 L 18, 54 L -36,0 z" />
      </g>
    </marker>
    <marker
       orient="auto"
       overflow="visible"
       markerHeight="1"
       markerWidth="1"
       viewBox="0 0 1 1"
       markerUnits="strokeWidth"
       id="DefaultArrow8">
      <!-- REF_ARROW_FEATHER2 -->
      <g
         id="g34"
         transform="scale(0.0092592592)">
        <path
           id="path32"
           d="M -36,0 L 18,-54 L 54,-54 L 18,-18 L 27,-18 L 63,-54 L 99,-54 L 63,-18 L 72,-18 L 108,-54 L 144,-54 L 90,0 L 144,54 L 108,54 L 72,18 L 63,18 L 99,54 L 63,54 L 27,18 L 18,18 L 54,54 L 18,54 z" />
      </g>
    </marker>
    <marker
       orient="auto"
       overflow="visible"
       markerHeight="1"
       markerWidth="1"
       viewBox="0 0 1 1"
       markerUnits="strokeWidth"
       id="DefaultArrow9">
      <!-- REF_ARROW_HOLLOWDIAMOND -->
      <g
         id="g39"
         transform="scale(0.0092592592)">
        <path
           id="path37"
           d="M 0,45 L -45,0 L 0, -45 L 45, 0 z M 0, 63 L-63, 0 L 0, -63 L 63, 0 z" />
      </g>
    </marker>
    <filter
       id="StainedFilter">
      <feBlend
         id="feBlend42"
         result="blend"
         in="SourceGraphic"
         in2="BackgroundImage"
         mode="multiply" />
      <feComposite
         id="feComposite44"
         result="comp"
         operator="in"
         in2="SourceAlpha"
         in="blend" />
    </filter>
    <filter
       id="BleachFilter">
      <feBlend
         id="feBlend47"
         result="blend"
         in="SourceGraphic"
         in2="BackgroundImage"
         mode="screen" />
      <feComposite
         id="feComposite49"
         result="comp"
         operator="in"
         in2="SourceAlpha"
         in="blend" />
    </filter>
    <filter
       id="InvertTransparencyBitmapFilter">
      <feComponentTransfer
         id="feComponentTransfer58">
        <feFuncR
           id="feFuncR52"
           offset="-0.055"
           exponent=".416666666"
           amplitude="1.055"
           type="gamma" />
        <feFuncG
           id="feFuncG54"
           offset="-0.055"
           exponent=".416666666"
           amplitude="1.055"
           type="gamma" />
        <feFuncB
           id="feFuncB56"
           offset="-0.055"
           exponent=".416666666"
           amplitude="1.055"
           type="gamma" />
      </feComponentTransfer>
      <feComponentTransfer
         id="feComponentTransfer68">
        <feFuncR
           id="feFuncR60"
           intercept="1"
           slope="-1"
           type="linear" />
        <feFuncG
           id="feFuncG62"
           intercept="1"
           slope="-1"
           type="linear" />
        <feFuncB
           id="feFuncB64"
           intercept="1"
           slope="-1"
           type="linear" />
        <feFuncA
           id="feFuncA66"
           intercept="0"
           slope="1"
           type="linear" />
      </feComponentTransfer>
      <feComponentTransfer
         id="feComponentTransfer76">
        <feFuncR
           id="feFuncR70"
           offset="0"
           exponent="2.4"
           amplitude="1"
           type="gamma" />
        <feFuncG
           id="feFuncG72"
           offset="0"
           exponent="2.4"
           amplitude="1"
           type="gamma" />
        <feFuncB
           id="feFuncB74"
           offset="0"
           exponent="2.4"
           amplitude="1"
           type="gamma" />
      </feComponentTransfer>
    </filter>
  </defs>
  <g
     transform="scale(1 -1)"
     font-size="16"
     font-family="Times New Roman"
     stroke="black"
     fill="none"
     id="Document">
    <g
       transform="translate(0 -18)"
       id="Spread">
      <g
         id="Layer 1">
        <g
           id="Group">
          <path
             id="path81"
             stroke-miterlimit="79.8403193612775"
             marker-end="none"
             marker-start="none"
             stroke-linejoin="miter"
             stroke-width="0.75"
             stroke="none"
             fill="#898989"
             d="M 18.001,0 L 18.001,18.001 L 0,18.001 L 0,0 L 18.001,0 Z" />
          <g
             id="Group_1">
            <g
               id="Group_2">
              <path
                 id="path83"
                 stroke-miterlimit="79.8403193612775"
                 marker-end="none"
                 marker-start="none"
                 fill="#b4b4b4"
                 stroke="none"
                 stroke-opacity="0.000000"
                 stroke-width="0"
                 stroke-linejoin="miter"
                 d="M 7.389,17.432 L 8.915,17.445 L 10.367,17.451 C 10.367,17.451 10.71,17.543 10.816,17.22 C 12.356,9.757 10.422,6.596 9.47,5.545 C 9.252,5.302 9.089,5.171 9.028,5.127 L 9.012,5.127 C 8.664,5.37 5.267,7.993 6.953,17.185 C 7.052,17.508 7.389,17.432 7.389,17.432 Z M 7.982,11.172 L 7.991,11.132 C 8.089,10.631 8.584,10.291 9.118,10.362 C 9.393,10.399 9.625,10.547 9.78,10.742 C 9.935,10.936 10.006,11.182 9.968,11.442 C 9.89,11.96 9.384,12.325 8.832,12.251 C 8.281,12.177 7.904,11.69 7.982,11.172 Z" />
              <path
                 id="path85"
                 fill-opacity="0.000000"
                 stroke-miterlimit="79.8403193612775"
                 marker-end="none"
                 marker-start="none"
                 fill="#b4b4b4"
                 stroke-opacity="0.000000"
                 stroke-width="0"
                 stroke-linejoin="miter"
                 stroke="none"
                 d="M 7.168,17.609 C 7.254,17.628 7.33,17.626 7.378,17.62 L 7.403,17.617 L 8.913,17.629 L 10.347,17.635 L 10.37,17.64 C 10.419,17.647 10.497,17.652 10.584,17.637 C 10.735,17.61 10.912,17.515 10.995,17.262 C 12.545,9.751 10.606,6.524 9.606,5.422 C 9.38,5.171 9.208,5.031 9.135,4.979 L 9.087,4.943 L 8.953,4.943 L 8.908,4.977 C 8.706,5.116 7.743,5.862 7.046,7.737 C 6.351,9.609 5.924,12.598 6.778,17.237 C 6.85,17.476 7.019,17.576 7.168,17.609 Z M 7.138,17.161 L 7.13,17.139 L 7.059,16.728 C 6.322,12.401 6.743,9.606 7.391,7.863 C 7.954,6.349 8.691,5.623 8.996,5.371 L 9.016,5.354 C 9.093,5.42 9.201,5.522 9.336,5.669 C 10.224,6.653 12.106,9.671 10.705,16.839 L 10.639,17.17 L 10.629,17.192 C 10.602,17.253 10.559,17.27 10.519,17.275 C 10.476,17.284 10.433,17.278 10.417,17.274 L 10.392,17.268 L 8.916,17.263 L 7.369,17.248 L 7.347,17.253 C 7.33,17.256 7.289,17.26 7.247,17.251 C 7.21,17.242 7.167,17.225 7.138,17.161 Z M 8.808,12.433 C 9.451,12.518 10.057,12.095 10.149,11.469 C 10.197,11.158 10.109,10.86 9.923,10.627 C 9.742,10.401 9.47,10.225 9.142,10.181 C 8.52,10.098 7.93,10.495 7.81,11.095 L 7.801,11.144 C 7.706,11.771 8.162,12.347 8.808,12.433 Z M 8.156,11.276 L 8.163,11.204 L 8.17,11.167 C 8.249,10.77 8.647,10.486 9.093,10.545 C 9.318,10.575 9.507,10.696 9.636,10.857 C 9.761,11.012 9.817,11.209 9.787,11.414 C 9.725,11.826 9.316,12.13 8.857,12.069 C 8.429,12.012 8.14,11.658 8.156,11.276 Z" />
              <path
                 id="path87"
                 stroke-miterlimit="79.8403193612775"
                 marker-end="none"
                 marker-start="none"
                 fill="#b4b4b4"
                 stroke="none"
                 stroke-opacity="0.000000"
                 stroke-width="0"
                 stroke-linejoin="miter"
                 d="M 8.924,17.366 L 10.356,17.406 C 10.356,17.406 10.733,17.496 10.853,17.178 C 12.946,8.114 9.447,5.438 9.065,5.19 L 8.924,17.366 Z" />
              <path
                 id="path89"
                 fill-opacity="0.000000"
                 stroke-miterlimit="79.8403193612775"
                 marker-end="none"
                 marker-start="none"
                 fill="#b4b4b4"
                 stroke-opacity="0.000000"
                 stroke-width="0"
                 stroke-linejoin="miter"
                 stroke="none"
                 d="M 8.739,17.543 L 10.337,17.589 C 10.384,17.598 10.48,17.61 10.588,17.592 C 10.742,17.569 10.936,17.481 11.027,17.237 L 11.03,17.22 C 12.084,12.662 11.735,9.69 11.058,7.817 C 10.384,5.941 9.385,5.18 9.164,5.036 L 8.884,4.855 L 8.739,17.543 Z M 9.109,17.188 L 9.244,5.568 L 9.262,5.585 C 9.632,5.929 10.249,6.653 10.714,7.941 C 11.34,9.678 11.692,12.451 10.766,16.72 L 10.677,17.123 L 10.668,17.142 C 10.636,17.2 10.587,17.223 10.532,17.23 C 10.458,17.241 10.39,17.226 10.399,17.227 L 10.381,17.223 L 9.109,17.188 Z" />
              <path
                 id="path91"
                 stroke-miterlimit="79.8403193612775"
                 marker-end="none"
                 marker-start="none"
                 fill="#b4b4b4"
                 stroke="none"
                 stroke-opacity="0.000000"
                 stroke-width="0"
                 stroke-linejoin="miter"
                 fill-rule="evenodd"
                 d="M 7.411,17.429 L 8.932,17.449 L 10.388,17.452 C 10.388,17.452 10.728,17.544 10.834,17.223 C 12.73,8.039 9.369,5.363 9.044,5.128 L 9.031,5.128 C 8.683,5.371 5.285,7.999 6.971,17.19 C 7.071,17.514 7.411,17.429 7.411,17.429 Z" />
              <path
                 id="path93"
                 fill-opacity="0.000000"
                 stroke-miterlimit="79.8403193612775"
                 marker-end="none"
                 marker-start="none"
                 fill="#b4b4b4"
                 stroke-opacity="0.000000"
                 stroke-width="0"
                 stroke-linejoin="miter"
                 fill-rule="evenodd"
                 stroke="none"
                 d="M 7.203,17.567 C 7.297,17.585 7.382,17.576 7.422,17.569 L 8.932,17.588 L 10.374,17.592 C 10.414,17.6 10.499,17.613 10.595,17.595 C 10.733,17.572 10.894,17.484 10.969,17.255 C 11.921,12.642 11.558,9.649 10.903,7.774 C 10.249,5.898 9.307,5.147 9.126,5.016 L 9.089,4.99 L 8.989,4.988 L 8.952,5.014 C 8.757,5.15 7.802,5.889 7.11,7.755 C 6.417,9.62 5.989,12.602 6.838,17.23 C 6.907,17.449 7.063,17.54 7.203,17.567 Z M 7.118,17.186 L 7.105,17.155 L 7.033,16.742 C 5.632,8.508 8.414,5.793 9.019,5.311 L 9.035,5.297 L 9.05,5.308 C 9.327,5.537 10.086,6.278 10.641,7.866 C 11.256,9.626 11.619,12.439 10.783,16.771 L 10.7,17.186 L 10.688,17.215 C 10.652,17.29 10.596,17.315 10.547,17.323 C 10.48,17.334 10.418,17.318 10.425,17.319 L 10.407,17.315 L 8.932,17.311 L 7.396,17.29 L 7.378,17.294 C 7.385,17.293 7.323,17.308 7.255,17.294 C 7.206,17.285 7.152,17.262 7.118,17.186 Z" />
              <path
                 id="path95"
                 stroke-miterlimit="79.8403193612775"
                 marker-end="none"
                 marker-start="none"
                 fill="#b4b4b4"
                 stroke="none"
                 stroke-opacity="0.000000"
                 stroke-width="0"
                 stroke-linecap="round"
                 stroke-linejoin="round"
                 fill-rule="evenodd"
                 d="M 8.824,12.244 C 9.37,12.324 9.88,11.973 9.969,11.461 C 10.059,10.948 9.692,10.462 9.149,10.372 C 8.606,10.283 8.086,10.622 7.985,11.133 L 7.978,11.174 C 7.901,11.689 8.278,12.166 8.824,12.244 Z" />
              <path
                 id="path97"
                 fill-opacity="0.000000"
                 stroke-miterlimit="79.8403193612775"
                 marker-end="none"
                 marker-start="none"
                 fill="#b4b4b4"
                 stroke-opacity="0.000000"
                 stroke-width="0"
                 stroke-linecap="round"
                 stroke-linejoin="round"
                 fill-rule="evenodd"
                 stroke="none"
                 d="M 8.806,12.358 C 9.41,12.446 9.982,12.06 10.083,11.48 C 10.185,10.899 9.769,10.358 9.167,10.259 C 8.569,10.161 7.986,10.532 7.872,11.111 L 7.868,11.134 L 7.864,11.158 C 7.776,11.742 8.204,12.272 8.806,12.358 Z M 8.092,11.187 L 8.097,11.156 C 8.186,10.711 8.642,10.406 9.13,10.487 C 9.617,10.567 9.932,10.997 9.856,11.44 C 9.78,11.888 9.33,12.202 8.841,12.13 C 8.352,12.06 8.026,11.637 8.092,11.187 Z" />
            </g>
            <path
               id="path100"
               stroke-miterlimit="79.8403193612775"
               marker-end="none"
               marker-start="none"
               stroke-linejoin="miter"
               stroke-width="0.75"
               stroke="#b4b4b4"
               d="M 3.485,12.373 L 5.106,15.333 L 13.448,10.766 L 13.929,11.644 L 16.723,7.048 L 11.346,6.926 L 11.827,7.806 L 3.485,12.373 Z" />
            <g
               stroke-miterlimit="79.8403193612775"
               fill="#b4b4b4"
               stroke-width="0.75"
               stroke="none"
               stroke-linejoin="miter"
               id="Group_3">
              <path
                 id="path102"
                 marker-end="none"
                 marker-start="none"
                 d="M 9.114,7.088 L 17.289,0.413 L 14.364,0.413 L 9.114,7.088 Z" />
              <path
                 id="path104"
                 marker-end="none"
                 marker-start="none"
                 d="M 8.888,7.088 L 0.713,0.413 L 3.638,0.413 L 8.888,7.088 Z" />
            </g>
            <path
               id="path107"
               stroke-miterlimit="79.8403193612775"
               marker-end="none"
               marker-start="none"
               stroke-linejoin="miter"
               stroke-width="0.496"
               stroke="none"
               fill="#898989"
               d="M 9.162,10.428 C 8.708,10.34 8.267,10.636 8.178,11.09 C 8.09,11.544 8.386,11.985 8.84,12.074 C 9.294,12.162 9.735,11.866 9.824,11.412 C 9.912,10.958 9.616,10.517 9.162,10.428 Z" />
            <g
               stroke-miterlimit="79.8403193612775"
               fill="#000000"
               stroke-width="0.75"
               stroke="#b4b4b4"
               stroke-linecap="round"
               stroke-linejoin="round"
               id="Group_4">
              <path
                 id="path109"
                 fill="none"
                 d="M 1.368,8.605 L 7.82,10.702" />
              <path
                 id="path111"
                 fill="none"
                 d="M 1.329,8.626 L 2.272,5.724" />
              <path
                 id="path113"
                 fill="none"
                 d="M 3.021,9.045 L 3.579,7.329" />
            </g>
          </g>
        </g>
      </g>
    </g>
  </g>
</svg>
